<?xml version="1.0" standalone="no"?>
<!DOCTYPE svg PUBLIC "-//W3C//DTD SVG 20010904//EN"
 "http://www.w3.org/TR/2001/REC-SVG-20010904/DTD/svg10.dtd">
<svg version="1.0" xmlns="http://www.w3.org/2000/svg"
 width="700.000000pt" height="700.000000pt" viewBox="0 0 700.000000 700.000000"
 preserveAspectRatio="xMidYMid meet">
<metadata>
Created by potrace 1.11, written by Peter Selinger 2001-2013
</metadata>
<g transform="translate(0.000000,700.000000) scale(0.100000,-0.100000)"
fill="#000000" stroke="none">
<path d="M3377 6124 c-1 -1 -42 -4 -92 -8 -49 -3 -130 -12 -180 -20 -49 -8
-103 -17 -120 -19 -93 -15 -370 -99 -470 -142 -360 -155 -625 -332 -870 -579
-138 -140 -235 -256 -333 -402 -54 -81 -160 -272 -196 -354 -16 -36 -37 -83
-47 -105 -38 -85 -116 -334 -135 -428 -10 -54 -24 -135 -29 -172 -3 -22 -8
-49 -10 -60 -27 -126 -24 -500 6 -710 15 -108 18 -122 51 -255 116 -468 347
-878 688 -1220 265 -266 561 -461 904 -595 114 -45 324 -109 392 -119 20 -4
39 -8 43 -10 3 -3 27 -7 51 -11 25 -3 72 -10 105 -15 190 -30 474 -32 705 -4
237 28 523 111 748 215 46 22 85 39 87 39 9 0 230 129 292 171 398 269 756
696 933 1114 12 28 27 64 35 80 61 140 143 441 161 592 3 32 8 61 10 64 15 26
23 393 11 544 -7 83 -30 254 -41 300 -3 11 -12 49 -20 85 -181 807 -791 1522
-1563 1831 -135 54 -318 112 -423 133 -14 3 -36 7 -50 10 -86 19 -132 25 -290
42 -51 6 -347 13 -353 8z"/>
</g>
</svg>
