<?xml version="1.0" encoding="utf-8"?>
<!-- Generator: Adobe Illustrator 16.0.0, SVG Export Plug-In . SVG Version: 6.00 Build 0)  -->
<!DOCTYPE svg PUBLIC "-//W3C//DTD SVG 1.1//EN" "http://www.w3.org/Graphics/SVG/1.1/DTD/svg11.dtd">
<svg version="1.1" id="Layer_1" xmlns="http://www.w3.org/2000/svg" xmlns:xlink="http://www.w3.org/1999/xlink" x="0px" y="0px"
	 width="80px" height="80px" viewBox="0 0 80 80" enable-background="new 0 0 80 80" xml:space="preserve">
<g>
	<g>
		<path fill="none" stroke="#FF6633" stroke-width="4.8228" stroke-miterlimit="10" d="M62.046,12.034
			c-6.003-4.896-14.127-7.789-22.283-7.789c-19.753,0-35.767,16.013-35.767,35.767c0,19.754,16.014,35.769,35.767,35.769
			c19.553,0,35.72-15.39,35.72-35.352"/>
		<path fill="none" stroke="#1F8F9A" stroke-width="4.8228" stroke-miterlimit="10" d="M63.827,13.529
			c5.231,4.328,11.652,15.301,11.652,24.555"/>
	</g>
	<g>
		<g>
			<path fill="#1F8F9A" d="M10.412,37.993c0-1.392,0.497-2.671,1.493-3.837c0.994-1.166,2.075-1.749,3.241-1.749
				c0.547,0,0.954,0.142,1.22,0.426c0.267,0.285,0.401,0.639,0.401,1.066c0,0.427-0.098,0.82-0.291,1.183
				c-0.194,0.363-0.431,0.544-0.711,0.544c-0.271,0-0.49-0.135-0.661-0.406c0.455-0.312,0.682-0.845,0.682-1.598
				c0-0.242-0.135-0.363-0.406-0.363c-0.696,0-1.425,0.568-2.185,1.706c-0.761,1.137-1.14,2.188-1.14,3.155
				c0,1.066,0.497,1.599,1.492,1.599h0.021c0.838,0,1.695-0.352,2.569-1.055s1.539-1.616,1.994-2.74l0.426,0.384
				c-0.512,1.294-1.3,2.366-2.366,3.22c-1.066,0.853-2.147,1.279-3.241,1.279c-0.768,0-1.383-0.238-1.845-0.714
				C10.643,39.617,10.412,38.917,10.412,37.993z"/>
			<path fill="#1F8F9A" d="M17.491,38.293c0-0.938,0.269-1.855,0.81-2.751c0.54-0.896,1.123-1.344,1.749-1.344
				c0.17,0,0.39,0.06,0.66,0.177c0.084-0.662,0.312-1.208,0.684-1.64c0.372-0.433,0.895-0.647,1.568-0.647
				c0.601,0,1.044,0.162,1.329,0.487c0.285,0.324,0.428,0.747,0.428,1.266c0,0.985-0.5,2.198-1.499,3.641
				c0.175,0.086,0.378,0.128,0.611,0.128c0.397,0,0.824-0.131,1.279-0.396c0.455-0.264,0.803-0.667,1.045-1.209l0.384,0.279
				c-0.298,0.677-0.7,1.192-1.205,1.544c-0.505,0.353-1.029,0.529-1.573,0.529c-0.331,0-0.691-0.062-1.081-0.186
				c-1.168,1.417-2.345,2.125-3.527,2.125c-0.597,0-1.023-0.192-1.28-0.575C17.619,39.337,17.491,38.861,17.491,38.293z
				 M19.196,38.231c0,0.651,0.242,0.977,0.725,0.977c0.501,0,1.169-0.499,2.004-1.496c-0.784-0.713-1.196-1.761-1.237-3.146
				c-0.271,0.143-0.586,0.636-0.949,1.481C19.378,36.893,19.196,37.622,19.196,38.231z M21.861,34.932
				c0,0.329,0.058,0.704,0.173,1.125s0.266,0.746,0.453,0.974c0.833-1.185,1.251-2.249,1.251-3.191c0-0.629-0.202-0.943-0.604-0.943
				c-0.302,0-0.59,0.2-0.863,0.6C21.998,33.897,21.861,34.375,21.861,34.932z"/>
			<path fill="#1F8F9A" d="M25.082,39.617c0.826-3.403,1.267-5.211,1.322-5.424c0.042-0.155,0.195-0.292,0.458-0.412
				c0.263-0.121,0.501-0.181,0.714-0.181c0.213,0,0.387,0.061,0.522,0.181s0.202,0.282,0.202,0.482c0,0.232-0.099,0.755-0.298,1.57
				c1.591-2.228,2.978-3.341,4.157-3.341c0.896,0,1.344,0.613,1.344,1.839c0,0.418-0.121,0.997-0.363,1.735
				c0.998-1.488,2.03-2.231,3.098-2.231c0.51,0,0.881,0.157,1.115,0.471c0.233,0.312,0.35,0.702,0.35,1.168
				c0,0.395-0.117,0.974-0.352,1.741C37.117,37.981,37,38.47,37,38.682c0,0.379,0.172,0.569,0.518,0.569
				c0.896,0,1.854-1.097,2.878-3.292l0.363,0.443c-0.413,1.058-0.941,1.968-1.588,2.729c-0.647,0.761-1.385,1.143-2.213,1.143
				c-0.532,0-0.942-0.156-1.23-0.467c-0.288-0.312-0.432-0.708-0.432-1.19c0-0.323,0.099-0.809,0.299-1.456
				c0.198-0.646,0.298-1.09,0.298-1.329c0-0.422-0.164-0.634-0.49-0.634c-0.313,0-0.675,0.227-1.087,0.677
				c-0.412,0.451-0.967,1.19-1.663,2.219c-0.186,0.253-0.41,0.623-0.672,1.109c-0.263,0.486-0.43,0.786-0.5,0.899
				c-0.256,0-0.533-0.05-0.832-0.148c-0.299-0.1-0.448-0.235-0.448-0.405c0-0.1,0.235-0.773,0.704-2.024
				c0.469-1.25,0.703-2.128,0.703-2.639c0-0.444-0.149-0.668-0.447-0.668c-0.583,0-1.383,0.644-2.399,1.93
				c-1.016,1.287-1.78,2.633-2.292,4.04c-0.249,0-0.542-0.07-0.879-0.212C25.25,39.836,25.082,39.715,25.082,39.617z"/>
			<path fill="#1F8F9A" d="M39.942,38.036c0-0.81,0.234-1.809,0.703-2.995c0.47-1.187,0.882-1.781,1.237-1.781
				c0.3,0,0.634,0.185,1.002,0.554c-0.299,0.442-0.607,1.073-0.928,1.899c-0.319,0.824-0.479,1.535-0.479,2.132
				c0,0.852,0.213,1.278,0.641,1.278c0.368,0,0.823-0.352,1.364-1.054c0.54-0.704,0.999-1.418,1.376-2.144
				c0.376-0.725,0.721-1.435,1.033-2.131c0.781,0.142,1.173,0.383,1.173,0.725c0,0.028-0.104,0.295-0.312,0.799
				c-0.21,0.505-0.415,1.084-0.618,1.738c-0.204,0.654-0.307,1.18-0.307,1.578c0,0.483,0.185,0.725,0.555,0.725h0.021
				c0.47,0,1.049-0.316,1.739-0.948c0.688-0.633,1.282-1.454,1.779-2.464l0.32,0.256c-0.482,1.151-1.15,2.115-2.005,2.89
				c-0.853,0.774-1.677,1.162-2.473,1.162c-0.271,0-0.502-0.053-0.692-0.16c-0.192-0.107-0.338-0.232-0.438-0.374
				c-0.1-0.142-0.178-0.333-0.234-0.576c-0.057-0.242-0.088-0.448-0.097-0.618c-0.006-0.171-0.01-0.39-0.01-0.661
				c-0.312,0.482-0.583,0.871-0.811,1.162c-0.228,0.292-0.52,0.568-0.874,0.832c-0.356,0.262-0.696,0.395-1.024,0.395
				c-0.469,0-0.861-0.221-1.173-0.661C40.099,39.151,39.942,38.633,39.942,38.036z"/>
			<path fill="#1F8F9A" d="M48.664,39.316c0-0.014,0.127-0.335,0.384-0.96c0.256-0.625,0.496-1.327,0.724-2.103
				c0.228-0.778,0.342-1.435,0.342-1.973c0.306-0.331,0.666-0.497,1.082-0.497c0.486,0,0.729,0.207,0.729,0.621
				c0,0.382-0.118,1.009-0.354,1.883c1.456-1.904,2.803-2.857,4.044-2.857c0.575,0,1.021,0.191,1.338,0.574
				c0.315,0.383,0.475,0.838,0.475,1.366c0,0.469-0.142,1.049-0.428,1.737c-0.283,0.69-0.425,1.177-0.425,1.462
				c0,0.412,0.175,0.618,0.524,0.618c0.47,0,0.978-0.323,1.524-0.97c0.547-0.646,1.042-1.41,1.481-2.292l0.362,0.299
				c-1.122,2.544-2.398,3.816-3.828,3.816c-0.541,0-0.96-0.135-1.259-0.405c-0.299-0.27-0.448-0.625-0.448-1.065
				c0-0.285,0.1-0.747,0.3-1.386c0.197-0.641,0.298-1.117,0.298-1.429c0-0.555-0.25-0.832-0.748-0.832
				c-0.396,0-0.817,0.16-1.263,0.479c-0.444,0.319-0.905,0.792-1.379,1.418c-0.474,0.625-0.839,1.13-1.093,1.513l-0.997,1.6
				C49.438,39.934,48.976,39.728,48.664,39.316z"/>
			<path fill="#1F8F9A" d="M59.11,38.72c0-0.824,0.292-1.742,0.872-2.751c0.582-1.01,1.352-1.877,2.309-2.602
				s1.904-1.088,2.841-1.088c0.604,0,1.11,0.162,1.516,0.486c0.405,0.322,0.608,0.735,0.608,1.239c0,0.651-0.378,0.992-1.133,1.019
				c0.478,0.156,0.715,0.362,0.715,0.617c0,0.17-0.196,0.598-0.59,1.286c-0.395,0.687-0.591,1.201-0.591,1.541
				c0,0.51,0.215,0.765,0.646,0.765c0.397,0,0.905-0.276,1.523-0.829c0.619-0.552,1.22-1.382,1.802-2.486l0.405,0.404
				c-0.526,1.183-1.181,2.135-1.962,2.855c-0.781,0.719-1.571,1.08-2.369,1.08c-0.562,0-0.996-0.19-1.298-0.571
				c-0.302-0.38-0.453-0.814-0.453-1.303c-0.64,0.767-1.187,1.328-1.642,1.682c-0.455,0.354-0.938,0.533-1.45,0.533
				c-0.498,0-0.913-0.164-1.248-0.489C59.278,39.778,59.11,39.316,59.11,38.72z M60.816,38.827c0,0.454,0.163,0.68,0.491,0.68
				c0.185,0,0.38-0.052,0.586-0.159s0.431-0.266,0.672-0.478l0.661-0.638c0.213-0.212,0.454-0.489,0.725-0.829l0.633-0.809
				l0.611-0.828l0.507-0.702c0.045-0.07,0.104-0.106,0.18-0.106h0.045l0.045,0.021c0.074-0.226,0.112-0.488,0.112-0.787
				c0-0.736-0.304-1.104-0.911-1.104c-0.935,0-1.896,0.694-2.88,2.082C61.31,36.56,60.816,37.777,60.816,38.827z"/>
		</g>
		<g>
			<path fill="#1F8F9A" d="M20.429,43.945v0.263h-1.008v0.861h0.899v0.26h-0.899v0.883h1.008v0.265h-1.34v-2.531H20.429z"/>
			<path fill="#1F8F9A" d="M21.412,44.62c0,0.092,0.025,0.17,0.077,0.229c0.05,0.062,0.117,0.106,0.197,0.135
				c0.08,0.03,0.17,0.056,0.269,0.077c0.098,0.021,0.197,0.046,0.295,0.076c0.099,0.028,0.188,0.063,0.269,0.107
				s0.146,0.11,0.198,0.195c0.051,0.089,0.076,0.196,0.076,0.327c0,0.195-0.075,0.368-0.227,0.514
				c-0.151,0.146-0.354,0.22-0.611,0.22c-0.257,0-0.465-0.06-0.627-0.177c-0.16-0.118-0.24-0.278-0.24-0.481h0.354
				c0.01,0.116,0.055,0.208,0.137,0.279c0.081,0.07,0.202,0.105,0.363,0.105c0.16,0,0.288-0.041,0.383-0.124
				c0.095-0.082,0.143-0.18,0.143-0.292c0-0.109-0.025-0.196-0.077-0.253c-0.051-0.062-0.118-0.105-0.197-0.135
				c-0.081-0.029-0.17-0.055-0.269-0.075c-0.099-0.021-0.197-0.044-0.296-0.074c-0.099-0.029-0.188-0.067-0.269-0.111
				c-0.08-0.045-0.146-0.113-0.198-0.202c-0.05-0.089-0.076-0.198-0.076-0.331c0-0.213,0.075-0.386,0.228-0.516
				c0.151-0.13,0.351-0.195,0.595-0.195c0.245,0,0.439,0.057,0.584,0.17c0.145,0.113,0.228,0.269,0.25,0.469h-0.369
				c-0.01-0.099-0.057-0.185-0.141-0.255c-0.084-0.072-0.197-0.105-0.34-0.105s-0.259,0.033-0.349,0.106
				C21.456,44.376,21.412,44.481,21.412,44.62z"/>
			<path fill="#1F8F9A" d="M24.968,44.152c0.149,0.138,0.224,0.316,0.224,0.534c0,0.215-0.072,0.394-0.217,0.535
				c-0.145,0.14-0.364,0.21-0.659,0.21h-0.49v1.045h-0.333v-2.531h0.823C24.601,43.945,24.817,44.014,24.968,44.152z M23.826,45.167
				h0.49c0.182,0,0.318-0.041,0.407-0.125c0.089-0.084,0.133-0.203,0.133-0.353c0-0.319-0.18-0.479-0.54-0.479h-0.49V45.167z"/>
			<path fill="#1F8F9A" d="M27.558,46.477l-0.197-0.556h-1.125l-0.197,0.556H25.7l0.92-2.531h0.365l0.917,2.531H27.558z
				 M26.332,45.656h0.935l-0.467-1.307L26.332,45.656z"/>
			<path fill="#1F8F9A" d="M28.786,46.132c-0.249-0.242-0.373-0.552-0.373-0.925c0-0.374,0.124-0.683,0.373-0.925
				c0.248-0.242,0.554-0.363,0.917-0.363c0.263,0,0.497,0.062,0.704,0.186c0.206,0.125,0.357,0.304,0.455,0.537h-0.402
				c-0.151-0.285-0.403-0.427-0.756-0.427c-0.275,0-0.502,0.091-0.681,0.272c-0.179,0.181-0.269,0.422-0.269,0.722
				c0,0.298,0.09,0.54,0.269,0.724c0.179,0.182,0.406,0.273,0.681,0.273c0.168,0,0.318-0.038,0.449-0.112s0.233-0.181,0.307-0.32
				h0.402c-0.098,0.234-0.249,0.414-0.455,0.538c-0.207,0.124-0.44,0.187-0.704,0.187C29.34,46.498,29.034,46.376,28.786,46.132z"/>
			<path fill="#1F8F9A" d="M31.591,46.477v-2.531h0.333v2.531H31.591z"/>
			<path fill="#1F8F9A" d="M33.838,46.501c-0.363,0-0.669-0.122-0.917-0.366c-0.248-0.245-0.372-0.555-0.372-0.928
				c0-0.374,0.124-0.683,0.372-0.925c0.249-0.242,0.554-0.363,0.917-0.363c0.363,0,0.667,0.121,0.915,0.363
				c0.248,0.242,0.371,0.551,0.371,0.927c0,0.374-0.124,0.684-0.371,0.927C34.505,46.379,34.201,46.501,33.838,46.501z
				 M34.517,45.933c0.178-0.184,0.267-0.426,0.267-0.724c0-0.3-0.089-0.541-0.267-0.722c-0.178-0.182-0.405-0.272-0.681-0.272
				s-0.504,0.091-0.684,0.272c-0.179,0.181-0.268,0.422-0.268,0.722c0,0.298,0.09,0.54,0.27,0.724
				c0.181,0.182,0.409,0.273,0.684,0.273S34.339,46.114,34.517,45.933z"/>
			<path fill="#1F8F9A" d="M35.978,46.128c-0.251-0.245-0.376-0.557-0.376-0.935c0-0.377,0.125-0.688,0.377-0.934
				c0.253-0.247,0.561-0.37,0.926-0.37c0.277,0,0.524,0.071,0.74,0.211c0.215,0.143,0.369,0.34,0.462,0.596H37.49
				c-0.114-0.225-0.31-0.334-0.584-0.334c-0.231,0-0.419,0.075-0.564,0.227c-0.146,0.152-0.218,0.354-0.218,0.606
				s0.072,0.455,0.218,0.606c0.145,0.152,0.333,0.228,0.564,0.228c0.272,0,0.468-0.11,0.584-0.335h0.618
				c-0.093,0.254-0.247,0.454-0.462,0.594c-0.216,0.139-0.463,0.21-0.74,0.21C36.538,46.498,36.229,46.376,35.978,46.128z"/>
			<path fill="#1F8F9A" d="M39.923,46.501c-0.368,0-0.677-0.122-0.928-0.369c-0.251-0.246-0.376-0.558-0.376-0.937
				s0.126-0.69,0.378-0.936c0.252-0.247,0.561-0.37,0.927-0.37c0.366,0,0.675,0.123,0.926,0.37c0.251,0.245,0.377,0.557,0.377,0.936
				s-0.126,0.69-0.377,0.937C40.6,46.379,40.291,46.501,39.923,46.501z M40.486,45.802c0.143-0.151,0.215-0.354,0.215-0.608
				s-0.072-0.454-0.215-0.606c-0.145-0.151-0.332-0.225-0.563-0.225c-0.231,0-0.42,0.075-0.564,0.227
				c-0.145,0.152-0.217,0.354-0.217,0.606s0.072,0.455,0.217,0.606c0.145,0.152,0.333,0.228,0.564,0.228
				C40.154,46.029,40.341,45.954,40.486,45.802z"/>
			<path fill="#1F8F9A" d="M44.694,43.927h0.551l-0.737,2.55h-0.586l-0.492-1.78l-0.508,1.78h-0.586l-0.723-2.55h0.549l0.489,1.968
				l0.516-1.968h0.581l0.485,1.949L44.694,43.927z"/>
			<path fill="#1F8F9A" d="M46.937,46.501c-0.368,0-0.677-0.122-0.927-0.369c-0.252-0.246-0.377-0.558-0.377-0.937
				s0.126-0.69,0.378-0.936c0.252-0.247,0.56-0.37,0.928-0.37c0.365,0,0.675,0.123,0.926,0.37c0.251,0.245,0.376,0.557,0.376,0.936
				s-0.125,0.69-0.376,0.937C47.613,46.379,47.304,46.501,46.937,46.501z M47.499,45.802c0.144-0.151,0.215-0.354,0.215-0.608
				s-0.071-0.454-0.215-0.606c-0.144-0.151-0.332-0.225-0.562-0.225c-0.232,0-0.42,0.075-0.564,0.227
				c-0.146,0.152-0.217,0.354-0.217,0.606s0.071,0.455,0.217,0.606c0.145,0.152,0.332,0.228,0.564,0.228
				C47.167,46.029,47.355,45.954,47.499,45.802z"/>
			<path fill="#1F8F9A" d="M49.369,45.461v1.016h-0.517v-2.55h0.939c0.295,0,0.521,0.072,0.682,0.22
				c0.159,0.147,0.238,0.33,0.238,0.546c0,0.162-0.047,0.312-0.145,0.45c-0.098,0.138-0.252,0.232-0.461,0.285l0.65,1.049h-0.61
				l-0.609-1.016H49.369z M49.369,44.32v0.745h0.423c0.129,0,0.228-0.033,0.295-0.102c0.07-0.065,0.103-0.155,0.103-0.271
				c0-0.113-0.032-0.204-0.103-0.271c-0.067-0.066-0.166-0.101-0.295-0.101H49.369z"/>
			<path fill="#1F8F9A" d="M51.946,46.477h-0.514v-2.55h0.514v1.139l0.922-1.139h0.672l-1.107,1.277l1.107,1.272h-0.669
				l-0.925-1.133V46.477z"/>
			<path fill="#1F8F9A" d="M54.103,46.477v-2.55h0.516v2.55H54.103z"/>
			<path fill="#1F8F9A" d="M57.042,43.919h0.516v2.558h-0.516l-1.153-1.77v1.77h-0.516v-2.558h0.516l1.153,1.768V43.919z"/>
			<path fill="#1F8F9A" d="M58.547,46.128c-0.251-0.245-0.376-0.557-0.376-0.935c0-0.377,0.125-0.688,0.378-0.934
				c0.252-0.247,0.561-0.37,0.927-0.37c0.277,0,0.523,0.071,0.739,0.211c0.215,0.143,0.37,0.34,0.462,0.596h-0.618
				c-0.114-0.225-0.308-0.334-0.583-0.334c-0.23,0-0.42,0.075-0.563,0.227c-0.146,0.152-0.219,0.354-0.219,0.606
				s0.072,0.455,0.219,0.606c0.144,0.152,0.32,0.228,0.531,0.228s0.376-0.051,0.497-0.154c0.122-0.104,0.195-0.243,0.226-0.419
				h-0.848v-0.391h1.398v0.391c-0.044,0.278-0.181,0.521-0.41,0.73c-0.229,0.207-0.515,0.312-0.863,0.312
				C59.098,46.498,58.798,46.376,58.547,46.128z"/>
		</g>
	</g>
</g>
</svg>
