<?xml version="1.0" encoding="utf-8"?>
<!-- Generator: Adobe Illustrator 16.0.0, SVG Export Plug-In . SVG Version: 6.00 Build 0)  -->
<!DOCTYPE svg PUBLIC "-//W3C//DTD SVG 1.1//EN" "http://www.w3.org/Graphics/SVG/1.1/DTD/svg11.dtd">
<svg version="1.1" id="Layer_1" xmlns="http://www.w3.org/2000/svg" xmlns:xlink="http://www.w3.org/1999/xlink" x="0px" y="0px"
	 width="50px" height="50px" viewBox="0 0 50 50" enable-background="new 0 0 50 50" xml:space="preserve">
<g>
	<g>
		<circle fill="#FF6633" cx="25" cy="25" r="18.76"/>
	</g>
	<g>
		<path fill="#FFFFFF" d="M15.621,28.191c0-3.208,1.146-6.153,3.437-8.838c2.291-2.684,4.779-4.026,7.463-4.026
			c1.26,0,2.197,0.328,2.811,0.982c0.613,0.655,0.922,1.473,0.922,2.455s-0.224,1.891-0.67,2.725
			c-0.447,0.835-0.992,1.252-1.639,1.252c-0.622,0-1.129-0.311-1.521-0.933c1.047-0.72,1.57-1.947,1.57-3.683
			c0-0.556-0.311-0.835-0.932-0.835c-1.605,0-3.283,1.31-5.034,3.928c-1.751,2.619-2.627,5.042-2.627,7.267
			c0,2.455,1.146,3.683,3.437,3.683h0.049c1.931,0,3.903-0.81,5.917-2.431c2.014-1.62,3.543-3.723,4.592-6.31l0.981,0.884
			c-1.179,2.979-2.995,5.45-5.45,7.414c-2.455,1.965-4.943,2.947-7.463,2.947c-1.768,0-3.184-0.549-4.248-1.646
			C16.153,31.932,15.621,30.32,15.621,28.191z"/>
	</g>
</g>
</svg>
